<svg id="Layer_1" height="512" viewBox="0 0 512 512" width="512" xmlns="http://www.w3.org/2000/svg" xmlns:xlink="http://www.w3.org/1999/xlink" data-name="Layer 1"><linearGradient id="linear-gradient" gradientUnits="userSpaceOnUse" x1="431.563" x2="-74.63" y1="-63.563" y2="442.63"><stop offset="0" stop-color="#f7941e"/><stop offset="1" stop-color="#ee2a7b"/></linearGradient><linearGradient id="linear-gradient-2" x1="486.25" x2="-19.944" xlink:href="#linear-gradient" y1="-8.877" y2="497.317"/><linearGradient id="linear-gradient-3" x1="547.563" x2="41.37" xlink:href="#linear-gradient" y1="52.437" y2="558.63"/><linearGradient id="linear-gradient-4" x1="467.563" x2="-38.63" xlink:href="#linear-gradient" y1="-27.563" y2="478.63"/><linearGradient id="linear-gradient-5" x1="627.563" x2="121.37" xlink:href="#linear-gradient" y1="132.437" y2="638.63"/><linearGradient id="linear-gradient-6" x1="391.563" x2="-114.63" xlink:href="#linear-gradient" y1="-103.563" y2="402.63"/><linearGradient id="linear-gradient-7" x1="521.141" x2="14.947" xlink:href="#linear-gradient" y1="26.014" y2="532.208"/><linearGradient id="linear-gradient-8" x1="477.315" x2="-28.878" xlink:href="#linear-gradient" y1="-17.811" y2="488.382"/><linearGradient id="linear-gradient-9" x1="379.563" x2="-126.63" xlink:href="#linear-gradient" y1="-115.563" y2="390.63"/><linearGradient id="linear-gradient-10" x1="479.563" x2="-26.63" xlink:href="#linear-gradient" y1="-15.563" y2="490.63"/><linearGradient id="linear-gradient-11" x1="612.249" x2="106.056" xlink:href="#linear-gradient" y1="117.123" y2="623.316"/><path d="m32 368a32 32 0 1 0 -32-32 32.037 32.037 0 0 0 32 32zm0-48a16 16 0 1 1 -16 16 16.018 16.018 0 0 1 16-16z" fill="url(#linear-gradient)"/><path d="m290.259 187.114-12.554-22.953a8 8 0 0 0 -14.037 0l-12.554 22.953-22.953 12.554a8 8 0 0 0 0 14.037l22.953 12.554 12.554 22.953a8 8 0 0 0 14.037 0l12.554-22.953 22.953-12.554a8 8 0 0 0 0-14.037zm-9.733 26.231a8 8 0 0 0 -3.18 3.18l-6.659 12.175-6.659-12.176a8 8 0 0 0 -3.18-3.18l-12.176-6.659 12.176-6.659a8 8 0 0 0 3.18-3.18l6.659-12.176 6.659 12.176a8 8 0 0 0 3.18 3.18l12.176 6.659z" fill="url(#linear-gradient-2)"/><path d="m180.161 384.332 22.953 12.554 12.554 22.953a8 8 0 0 0 14.037 0l12.554-22.953 22.953-12.554a8 8 0 0 0 0-14.037l-22.953-12.554-12.554-22.953a8 8 0 0 0 -14.037 0l-12.554 22.953-22.953 12.554a8 8 0 0 0 0 14.037zm32.687-13.678a8 8 0 0 0 3.18-3.18l6.659-12.176 6.659 12.176a8 8 0 0 0 3.18 3.18l12.176 6.659-12.176 6.659a8 8 0 0 0 -3.18 3.18l-6.659 12.176-6.659-12.176a8 8 0 0 0 -3.18-3.18l-12.176-6.659z" fill="url(#linear-gradient-3)"/><path d="m392 32h16v16h-16z" fill="url(#linear-gradient-4)"/><path d="m320 424h16v16h-16z" fill="url(#linear-gradient-5)"/><path d="m200 72h16v16h-16z" fill="url(#linear-gradient-6)"/><path d="m388.77 144.77h11.231v16h-11.231z" fill="url(#linear-gradient-7)"/><path d="m40 216a40.367 40.367 0 0 0 8.008-.8q-.007.4-.008.8a39.993 39.993 0 0 0 77.171 14.745l20.499 33.255h-25.67a8 8 0 0 0 -8 8v90.98c0 21.036 45.313 123.872 54.4 144.273a8 8 0 0 0 7.306 4.747h70.529a8 8 0 0 0 7.352-4.845c8.752-20.394 52.413-123.192 52.413-144.175v-90.98a8 8 0 0 0 -8-8h-80v-104.8a40.068 40.068 0 0 0 32-39.2c0-.266 0-.53-.008-.8a40 40 0 1 0 0-78.408c0-.266.008-.53.008-.8a40 40 0 0 0 -80 0c0 .266 0 .53.008.8a40 40 0 1 0 0 78.408c0 .266-.008.53-.008.8a40.068 40.068 0 0 0 32 39.2v104.8h-35.533l-29.6-48.028c.379.01.757.028 1.138.028a40 40 0 1 0 -8.008-79.2q.007-.4.008-.8a40 40 0 0 0 -80 0c0 .266 0 .53.008.8a40.006 40.006 0 1 0 -8.013 79.2zm144-96a23.717 23.717 0 0 1 2.68-11.016 8 8 0 0 0 -12-10 23.753 23.753 0 0 1 -14.68 5.016 24 24 0 0 1 0-48 23.753 23.753 0 0 1 14.677 5.02 8 8 0 0 0 12-10 23.717 23.717 0 0 1 -2.677-11.02 24 24 0 0 1 48 0 23.717 23.717 0 0 1 -2.68 11.016 8 8 0 0 0 12 10 23.753 23.753 0 0 1 14.68-5.016 24 24 0 0 1 0 48 23.753 23.753 0 0 1 -14.677-5.02 8 8 0 0 0 -12 10 23.717 23.717 0 0 1 2.677 11.02 24 24 0 0 1 -48 0zm104 242.98c0 11.842-24.89 76.383-49.044 133.02h-60.048c-25.064-56.639-50.908-121.206-50.908-133.02v-82.98h160zm-248-210.98a23.754 23.754 0 0 1 14.678 5.02 8 8 0 0 0 12-10.006 23.7 23.7 0 0 1 -2.678-11.014 24 24 0 0 1 48 0 23.721 23.721 0 0 1 -2.68 11.017 8 8 0 0 0 12 10 23.758 23.758 0 0 1 14.68-5.017 24 24 0 0 1 0 48 23.754 23.754 0 0 1 -14.678-5.02 8 8 0 0 0 -12 10.006 23.7 23.7 0 0 1 2.678 11.014 24 24 0 0 1 -48 0 23.721 23.721 0 0 1 2.68-11.017 8 8 0 0 0 -12-10 23.758 23.758 0 0 1 -14.68 5.017 24 24 0 0 1 0-48z" fill="url(#linear-gradient-8)"/><path d="m80 168h16v16h-16z" fill="url(#linear-gradient-9)"/><path d="m144 296h16v32h-16z" fill="url(#linear-gradient-10)"/><path d="m510.656 331.563-.031-.046-31.968-47.951a8 8 0 0 0 -3.966-3.1l-64.628-23.082-6.19-39.606a40.006 40.006 0 0 0 46.637-63.838c-.187-.187-.377-.372-.568-.557a40.344 40.344 0 0 0 6.225-5.1 40 40 0 1 0 -56.567-56.567 40.351 40.351 0 0 0 -5.1 6.226q-.275-.287-.557-.569a40 40 0 1 0 -56.569 56.569q.283.281.569.557a40.061 40.061 0 0 0 -6.226 61.668 39.976 39.976 0 0 0 55.821.712l5.374 34.38-30.22-10.793a8 8 0 0 0 -8.348 1.877c-.457.457-11.169 11.37-9.253 26.931 1.416 11.5 9.129 21.953 22.91 31.119v62.353a42.16 42.16 0 0 0 23.434 37.916l8.565 4.282v19.056a8 8 0 0 0 .656 3.173l13.17 30.481v54.346h16v-56a8 8 0 0 0 -.656-3.173l-13.17-30.481v-76.13l6.474 2.589c-3.437 15.711-7.78 53.2 19.869 80.852l11.314-11.314c-28.022-28.021-14.205-71.395-14.067-71.812a8 8 0 0 0 -4.619-9.958l-39.186-15.673c-6.722-4.706-9.633-10.426-8.9-17.464a25.233 25.233 0 0 1 1.14-5.206l107.975 43.186v170.584h16v-176a7.99 7.99 0 0 0 -1.347-4.436zm-133.686-126.709a24 24 0 1 1 -20.012-40.771 8 8 0 0 0 1.412-15.562 23.708 23.708 0 0 1 -9.684-5.895 24 24 0 0 1 33.94-33.94 23.708 23.708 0 0 1 5.895 9.684 8 8 0 0 0 15.562-1.412 23.751 23.751 0 0 1 6.829-13.928 24 24 0 1 1 33.94 33.94 23.747 23.747 0 0 1 -13.927 6.828 8 8 0 0 0 -1.414 15.562 24 24 0 1 1 -30.151 30.151 8 8 0 0 0 -15.562 1.414 23.748 23.748 0 0 1 -6.828 13.929zm89.844 89.789 16.243 24.364-67.589-27.035-2.593-16.592zm-79.251 40.014a7.991 7.991 0 0 0 1.467.771l10.97 4.388v47.24l-1.411-.706a26.248 26.248 0 0 1 -14.589-23.605v-30.724c1.108.903 2.287 1.785 3.563 2.635zm-.592-54.084a8 8 0 0 0 -9.627 2.99c-.57.855-1.118 1.771-1.641 2.73-8.814-6.109-13.879-12.559-14.715-18.827a16.606 16.606 0 0 1 1.992-9.906l32.742 11.693 2.471 15.808z" fill="url(#linear-gradient-11)"/></svg>